<?xml version="1.0" encoding="UTF-8" standalone="no"?>
<!-- Created with Inkscape (http://www.inkscape.org/) -->

<svg
   width="512"
   height="512"
   viewBox="0 0 135.46666 135.46666"
   version="1.1"
   id="svg5"
   inkscape:version="1.2.1 (9c6d41e410, 2022-07-14, custom)"
   sodipodi:docname="metafab-godot-icon.svg"
   inkscape:export-filename="metafab-godot-splash.png"
   inkscape:export-xdpi="96"
   inkscape:export-ydpi="96"
   xmlns:inkscape="http://www.inkscape.org/namespaces/inkscape"
   xmlns:sodipodi="http://sodipodi.sourceforge.net/DTD/sodipodi-0.dtd"
   xmlns:xlink="http://www.w3.org/1999/xlink"
   xmlns="http://www.w3.org/2000/svg"
   xmlns:svg="http://www.w3.org/2000/svg">
  <sodipodi:namedview
     id="namedview7"
     pagecolor="#505050"
     bordercolor="#eeeeee"
     borderopacity="1"
     inkscape:showpageshadow="0"
     inkscape:pageopacity="0"
     inkscape:pagecheckerboard="0"
     inkscape:deskcolor="#505050"
     inkscape:document-units="px"
     showgrid="false"
     inkscape:zoom="0.52927355"
     inkscape:cx="446.83888"
     inkscape:cy="153.03996"
     inkscape:window-width="2560"
     inkscape:window-height="1412"
     inkscape:window-x="2560"
     inkscape:window-y="28"
     inkscape:window-maximized="1"
     inkscape:current-layer="g9058"
     showguides="true">
    <inkscape:grid
       type="xygrid"
       id="grid9019"
       originx="0"
       originy="0" />
  </sodipodi:namedview>
  <defs
     id="defs2">
    <linearGradient
       inkscape:collect="always"
       id="linearGradient8125">
      <stop
         style="stop-color:#8d5acf;stop-opacity:0;"
         offset="0"
         id="stop8121" />
      <stop
         style="stop-color:#7d53d0;stop-opacity:0.40000001;"
         offset="0.19597325"
         id="stop8855" />
      <stop
         style="stop-color:#714ed1;stop-opacity:0.60000002;"
         offset="0.50114071"
         id="stop8857" />
      <stop
         style="stop-color:#5f47d3;stop-opacity:0.40000001;"
         offset="0.7962901"
         id="stop8859" />
      <stop
         style="stop-color:#5844d5;stop-opacity:0;"
         offset="1"
         id="stop8123" />
    </linearGradient>
    <linearGradient
       inkscape:collect="always"
       id="linearGradient5021">
      <stop
         style="stop-color:#8d5acf;stop-opacity:1;"
         offset="0"
         id="stop5017" />
      <stop
         style="stop-color:#5945d6;stop-opacity:1;"
         offset="1"
         id="stop5019" />
    </linearGradient>
    <linearGradient
       inkscape:collect="always"
       xlink:href="#linearGradient5021"
       id="linearGradient5023"
       x1="104.54032"
       y1="84.666664"
       x2="234.12634"
       y2="84.666664"
       gradientUnits="userSpaceOnUse" />
    <linearGradient
       inkscape:collect="always"
       xlink:href="#linearGradient8125"
       id="linearGradient8127"
       x1="3.1750026"
       y1="76.762016"
       x2="132.29167"
       y2="76.762016"
       gradientUnits="userSpaceOnUse"
       gradientTransform="translate(-3.0957932e-6)" />
    <linearGradient
       inkscape:collect="always"
       xlink:href="#linearGradient5021"
       id="linearGradient9282"
       x1="148.46143"
       y1="20.637499"
       x2="202.99602"
       y2="42.835083"
       gradientUnits="userSpaceOnUse" />
    <linearGradient
       inkscape:collect="always"
       xlink:href="#linearGradient5021"
       id="linearGradient9290"
       x1="16.433224"
       y1="77.820351"
       x2="122.54601"
       y2="127.21863"
       gradientUnits="userSpaceOnUse" />
    <linearGradient
       inkscape:collect="always"
       xlink:href="#linearGradient5021"
       id="linearGradient9323"
       gradientUnits="userSpaceOnUse"
       x1="148.46143"
       y1="20.637499"
       x2="202.99602"
       y2="42.835083" />
    <linearGradient
       inkscape:collect="always"
       xlink:href="#linearGradient5021"
       id="linearGradient9325"
       gradientUnits="userSpaceOnUse"
       x1="148.46143"
       y1="20.637499"
       x2="202.99602"
       y2="42.835083" />
  </defs>
  <rect
     style="opacity:1;fill:#21222d;fill-opacity:1;stroke-width:1.05833;stroke-linecap:round;stroke-linejoin:round;stroke-dashoffset:25.9;paint-order:stroke fill markers"
     id="rect756"
     width="338.66666"
     height="169.33333"
     x="0"
     y="0"
     inkscape:label="Background"
     sodipodi:insensitive="true" />
  <g
     inkscape:label="Layer 1"
     inkscape:groupmode="layer"
     id="layer1"
     style="fill:url(#linearGradient5023);fill-opacity:1">
    <g
       id="g9058"
       style="fill:url(#linearGradient9282);fill-opacity:1;stroke-width:0.486485"
       transform="matrix(2.0555617,0,0,2.0555617,-293.81258,-20.593365)">
      <path
         d="m 156.87939,41.28097 c -2.30522,0 -3.03047,-0.802953 -3.03047,-3.703917 0,-2.020299 -0.85474,-5.646504 -3.6521,-5.879597 2.95278,-0.751159 3.10816,-3.600329 3.10816,-5.646547 0,-3.056345 0.72524,-3.859298 3.03047,-3.859298 v -1.554112 c -3.44486,0 -4.32552,1.735412 -4.32552,5.41341 0,2.357023 -0.80296,4.714088 -3.5485,4.7918 v 1.761288 c 2.71965,0 4.09244,2.978676 4.09244,4.973056 0.10358,3.574411 0.95833,5.258029 4.32552,5.258029 z"
         fill="#ffffff"
         id="path485"
         style="fill:url(#linearGradient9282);fill-opacity:1.0;stroke-width:0.0794959" />
      <path
         d="m 163.67683,40.762947 v -9.99795 l 3.67805,8.417962 h 2.09801 l 3.65208,-8.392086 v 9.972074 h 3.39311 V 22.631922 h -3.34128 l -4.76588,11.422557 -4.73996,-11.422557 h -3.36719 v 18.131025 z"
         fill="#ffffff"
         id="path487"
         style="fill:url(#linearGradient9323);fill-opacity:1;stroke-width:0.0794959" />
      <path
         d="m 183.53674,40.762947 v -7.589133 h 8.62544 v -3.237688 h -8.62544 V 25.86961 h 8.91032 V 22.631922 H 180.1438 v 18.131025 z"
         fill="#ffffff"
         id="path495"
         style="fill:url(#linearGradient9325);fill-opacity:1;stroke-width:0.0794959" />
      <path
         d="m 194.57835,42.835082 c 3.36723,0 4.2219,-1.683618 4.32557,-5.258029 0,-1.99438 1.3726,-4.973056 4.09209,-4.973056 v -1.761288 c -2.7452,-0.07771 -3.54845,-2.434777 -3.54845,-4.7918 0,-3.677998 -0.88036,-5.41341 -4.32557,-5.41341 v 1.554112 c 2.30523,0 3.03051,0.802953 3.03051,3.859298 0,2.046218 0.15551,4.895388 3.10848,5.646547 -2.79746,0.233093 -3.65212,3.859298 -3.65212,5.879597 0,2.900964 -0.72528,3.703917 -3.03051,3.703917 z"
         fill="#ffffff"
         id="path501"
         style="fill:url(#linearGradient9282);fill-opacity:1.0;stroke-width:0.0794959" />
    </g>
    <path
       id="path3868"
       style="fill:url(#linearGradient9290);fill-opacity:1;stroke:none;stroke-width:0.399013"
       d="m 23.800091,87.790262 c -3.691987,0 -6.578661,1.162359 -8.663478,3.486954 -2.086413,2.325556 -3.128179,5.344886 -3.128179,9.060754 0,4.36293 1.065974,7.66976 3.197597,9.92272 2.13545,2.25264 4.938887,3.37768 8.414656,3.37768 1.869235,0 3.528324,-0.16074 4.977846,-0.48459 1.451133,-0.32257 2.415958,-0.65342 2.895851,-0.98841 l 0.143653,-11.2507 c 0,-0.65376 -1.725403,-0.950491 -3.660878,-0.983611 -1.935459,-0.03 -4.150273,0.373231 -4.150273,0.373231 v 3.77772 h 2.227731 l -0.02542,1.68404 c 0,0.62383 -0.618418,0.93756 -1.851736,0.93756 -1.234914,0 -2.325066,-0.52292 -3.271152,-1.56581 -0.948302,-1.04416 -1.420081,-2.57068 -1.420081,-4.58194 0,-2.015398 0.460827,-3.501439 1.383651,-4.460264 0.920931,-0.957865 2.127883,-1.437965 3.612771,-1.437965 0.623812,0 1.269512,0.100499 1.941105,0.305884 0.671904,0.203479 1.121012,0.393923 1.34997,0.572573 0.227037,0.183734 0.442679,0.270813 0.646808,0.270813 0.203154,0 0.53199,-0.237767 0.987039,-0.718295 0.455684,-0.479243 0.864032,-1.205046 1.224184,-2.173414 0.358571,-0.973467 0.538211,-1.719793 0.538211,-2.249029 0,-0.525103 -0.01182,-0.887394 -0.03443,-1.078458 -0.503451,-0.550902 -1.432644,-0.98736 -2.787919,-1.312171 -1.352733,-0.32384 -2.869722,-0.485272 -4.547581,-0.485272 z m 22.057355,0 c -3.391705,0 -6.161047,1.091049 -8.30606,3.27044 -2.144362,2.182242 -3.216144,5.386888 -3.216144,9.619568 0,4.23016 1.059826,7.44809 3.179034,9.65328 2.122075,2.20327 4.867711,3.30482 8.234558,3.30482 3.368458,0 6.116888,-1.05945 8.251067,-3.17834 2.134179,-2.12336 3.200345,-5.35876 3.200345,-9.70895 0,-4.347014 -1.042179,-7.597205 -3.129553,-9.741248 -2.083546,-2.148177 -4.822192,-3.21957 -8.213247,-3.21957 z m 47.681415,0 c -3.392977,0 -6.160146,1.091049 -8.30674,3.27044 -2.144052,2.182242 -3.216159,5.386888 -3.216159,9.619568 0,4.23016 1.060713,7.44809 3.182478,9.65328 2.120168,2.20327 4.863691,3.30482 8.231809,3.30482 3.366862,0 6.117848,-1.05945 8.251071,-3.17834 2.13385,-2.12336 3.20034,-5.35876 3.20034,-9.70895 0,-4.347014 -1.04171,-7.597205 -3.12748,-9.741248 -2.086106,-2.148177 -4.823628,-3.21957 -8.215319,-3.21957 z M 61.99319,88.111944 c -0.480839,0 -0.869485,0.175517 -1.168511,0.521019 -0.300918,0.350915 -0.450217,0.824582 -0.450217,1.424196 v 21.569311 c 0,1.1034 0.612344,1.65311 1.833883,1.65311 h 6.146357 c 7.526313,0 11.290571,-4.40953 11.290571,-13.2303 0,-4.123142 -0.988916,-7.141699 -2.968018,-9.058691 -1.975599,-1.917622 -4.869854,-2.878645 -8.679972,-2.878645 z m 44.85569,0 c -0.40792,0 -0.69614,0.554095 -0.86332,1.656524 -0.072,0.527019 -0.10656,1.06768 -0.10656,1.616665 0,0.552173 0.0346,1.090602 0.10656,1.616665 0.16718,1.105296 0.4554,1.655833 0.86332,1.655833 h 4.31318 v 18.049379 c 0,0.47637 1.1881,0.7176 3.55984,0.7176 2.37395,0 3.55914,-0.24123 3.55914,-0.7176 V 94.657631 h 4.20664 c 0.40728,0 0.69428,-0.550537 0.86401,-1.655833 0.0703,-0.526063 0.10656,-1.064492 0.10656,-1.616665 0,-0.548985 -0.0362,-1.089646 -0.10656,-1.616665 -0.16973,-1.102429 -0.45673,-1.656524 -0.86401,-1.656524 z m -61.082858,6.581438 c 1.151472,0 2.116519,0.515304 2.894462,1.544493 0.778905,1.030474 1.169886,2.506155 1.169886,4.423155 0,1.9186 -0.378434,3.39227 -1.133455,4.42178 -0.755006,1.03334 -1.73801,1.54794 -2.948081,1.54794 -1.210705,0 -2.186601,-0.50814 -2.929518,-1.52938 -0.744202,-1.01804 -1.115587,-2.479 -1.115587,-4.38742 0,-1.904257 0.390509,-3.384608 1.167817,-4.43895 0.781461,-1.053397 1.744587,-1.581618 2.894476,-1.581618 z m 47.68279,0 c 1.151486,0 2.115247,0.515304 2.894476,1.544493 0.77889,1.030474 1.168512,2.506155 1.168512,4.423155 0,1.9186 -0.378124,3.39227 -1.133455,4.42178 -0.754076,1.03334 -1.7377,1.54794 -2.948096,1.54794 -1.210706,0 -2.187561,-0.50814 -2.929518,-1.52938 -0.741971,-1.01804 -1.114213,-2.479 -1.114213,-4.38742 0,-1.904257 0.388765,-3.384608 1.165763,-4.43895 0.780175,-1.053397 1.746331,-1.581618 2.896531,-1.581618 z m -26.171878,0.249516 h 0.359487 c 1.533911,0 2.654671,0.35031 3.362561,1.045461 0.704388,0.693244 1.05922,2.185876 1.05922,4.476091 0,2.28926 -0.33921,3.92393 -1.024163,4.90568 -0.683372,0.98271 -1.682781,1.47576 -3.002394,1.47576 -0.358557,0 -0.57479,-0.0665 -0.646114,-0.19865 -0.07197,-0.13286 -0.108627,-0.44912 -0.108627,-0.9513 z" />
    <rect
       style="fill:url(#linearGradient8127);fill-opacity:1;stroke:none;stroke-width:1.05833;stroke-linecap:round;stroke-linejoin:round;stroke-dashoffset:25.9;paint-order:stroke fill markers"
       id="rect7379"
       width="129.12433"
       height="1.0583333"
       x="3.1749995"
       y="76.762016" />
  </g>
  <g
     id="g2837"
     inkscape:label="Edges"
     sodipodi:insensitive="true"
     style="display:none">
    <rect
       style="opacity:1;fill:#21222d;fill-opacity:1;stroke-width:1.05833;stroke-linecap:round;stroke-linejoin:round;stroke-dashoffset:25.9;paint-order:stroke fill markers"
       id="rect2831"
       width="338.66666"
       height="20.637499"
       x="0"
       y="148.69583" />
    <rect
       style="opacity:1;fill:#21222d;fill-opacity:1;stroke-width:1.05833;stroke-linecap:round;stroke-linejoin:round;stroke-dashoffset:25.9;paint-order:stroke fill markers"
       id="rect2833"
       width="338.66666"
       height="20.637499"
       x="0"
       y="0" />
    <rect
       style="opacity:1;fill:#21222d;fill-opacity:1;stroke-width:1.05833;stroke-linecap:round;stroke-linejoin:round;stroke-dashoffset:25.9;paint-order:stroke fill markers"
       id="rect2839"
       width="20.637499"
       height="169.33333"
       x="0"
       y="0" />
    <rect
       style="opacity:1;fill:#21222d;fill-opacity:1;stroke-width:1.05833;stroke-linecap:round;stroke-linejoin:round;stroke-dashoffset:25.9;paint-order:stroke fill markers"
       id="rect2841"
       width="20.637499"
       height="169.33333"
       x="318.02914"
       y="0" />
  </g>
</svg>
