<?xml version="1.0" encoding="UTF-8" standalone="no"?>
<!-- Created with Inkscape (http://www.inkscape.org/) -->

<svg
   width="1280"
   height="640"
   viewBox="0 0 338.66666 169.33333"
   version="1.1"
   id="svg5"
   inkscape:version="1.2.1 (9c6d41e410, 2022-07-14, custom)"
   sodipodi:docname="metafab-godot-splash.svg"
   xmlns:inkscape="http://www.inkscape.org/namespaces/inkscape"
   xmlns:sodipodi="http://sodipodi.sourceforge.net/DTD/sodipodi-0.dtd"
   xmlns:xlink="http://www.w3.org/1999/xlink"
   xmlns="http://www.w3.org/2000/svg"
   xmlns:svg="http://www.w3.org/2000/svg">
  <sodipodi:namedview
     id="namedview7"
     pagecolor="#505050"
     bordercolor="#eeeeee"
     borderopacity="1"
     inkscape:showpageshadow="0"
     inkscape:pageopacity="0"
     inkscape:pagecheckerboard="0"
     inkscape:deskcolor="#505050"
     inkscape:document-units="px"
     showgrid="false"
     inkscape:zoom="0.98959427"
     inkscape:cx="320.83856"
     inkscape:cy="522.43633"
     inkscape:window-width="2560"
     inkscape:window-height="1412"
     inkscape:window-x="2560"
     inkscape:window-y="28"
     inkscape:window-maximized="1"
     inkscape:current-layer="layer1"
     showguides="true" />
  <defs
     id="defs2">
    <linearGradient
       inkscape:collect="always"
       id="linearGradient8125">
      <stop
         style="stop-color:#8d5acf;stop-opacity:0;"
         offset="0"
         id="stop8121" />
      <stop
         style="stop-color:#7d53d0;stop-opacity:0.40000001;"
         offset="0.19597325"
         id="stop8855" />
      <stop
         style="stop-color:#714ed1;stop-opacity:0.60000002;"
         offset="0.50114071"
         id="stop8857" />
      <stop
         style="stop-color:#5f47d3;stop-opacity:0.40000001;"
         offset="0.7962901"
         id="stop8859" />
      <stop
         style="stop-color:#5844d5;stop-opacity:0;"
         offset="1"
         id="stop8123" />
    </linearGradient>
    <linearGradient
       inkscape:collect="always"
       id="linearGradient5021">
      <stop
         style="stop-color:#8d5acf;stop-opacity:1;"
         offset="0"
         id="stop5017" />
      <stop
         style="stop-color:#5945d6;stop-opacity:1;"
         offset="1"
         id="stop5019" />
    </linearGradient>
    <linearGradient
       inkscape:collect="always"
       xlink:href="#linearGradient5021"
       id="linearGradient5023"
       x1="104.54032"
       y1="84.666662"
       x2="234.12635"
       y2="84.666662"
       gradientUnits="userSpaceOnUse" />
    <linearGradient
       inkscape:collect="always"
       xlink:href="#linearGradient5021"
       id="linearGradient5759"
       x1="3.6276901"
       y1="13.022"
       x2="306.11499"
       y2="64.836899"
       gradientUnits="userSpaceOnUse" />
    <linearGradient
       inkscape:collect="always"
       xlink:href="#linearGradient5021"
       id="linearGradient6495"
       x1="134.81323"
       y1="45"
       x2="430.81497"
       y2="342.23325"
       gradientUnits="userSpaceOnUse"
       gradientTransform="matrix(1.1111111,0,0,1.1111111,-32.489825,-64.027774)" />
    <linearGradient
       inkscape:collect="always"
       xlink:href="#linearGradient5021"
       id="linearGradient7263"
       x1="-68.980972"
       y1="21.67857"
       x2="213.92117"
       y2="-120.5509"
       gradientUnits="userSpaceOnUse"
       gradientTransform="matrix(1.1111111,0,0,1.1111111,-7.6648025,10.998323)" />
    <linearGradient
       inkscape:collect="always"
       xlink:href="#linearGradient5021"
       id="linearGradient7265"
       x1="-21.195076"
       y1="8.4923773"
       x2="210.26778"
       y2="8.4923773"
       gradientUnits="userSpaceOnUse"
       gradientTransform="matrix(1.1111111,0,0,1.1111111,-10.504036,-0.74730598)" />
    <linearGradient
       inkscape:collect="always"
       xlink:href="#linearGradient5021"
       id="linearGradient7315"
       gradientUnits="userSpaceOnUse"
       x1="134.81323"
       y1="45"
       x2="430.81497"
       y2="342.23325"
       gradientTransform="matrix(1.1111111,0,0,1.1111111,-34.655814,-68.296304)" />
    <linearGradient
       inkscape:collect="always"
       xlink:href="#linearGradient5021"
       id="linearGradient7317"
       gradientUnits="userSpaceOnUse"
       x1="134.81323"
       y1="45"
       x2="430.81497"
       y2="342.23325"
       gradientTransform="matrix(1.1111111,0,0,1.1111111,-32.489825,-64.027774)" />
    <linearGradient
       inkscape:collect="always"
       xlink:href="#linearGradient5021"
       id="linearGradient7319"
       gradientUnits="userSpaceOnUse"
       x1="134.81323"
       y1="45"
       x2="430.81497"
       y2="342.23325"
       gradientTransform="matrix(1.1111111,0,0,1.1111111,-32.489825,-64.027774)" />
    <linearGradient
       inkscape:collect="always"
       xlink:href="#linearGradient5021"
       id="linearGradient7321"
       gradientUnits="userSpaceOnUse"
       x1="134.81323"
       y1="45"
       x2="430.81497"
       y2="342.23325"
       gradientTransform="matrix(1.1111111,0,0,1.1111111,-32.489825,-64.027774)" />
    <linearGradient
       inkscape:collect="always"
       xlink:href="#linearGradient5021"
       id="linearGradient7323"
       gradientUnits="userSpaceOnUse"
       x1="134.81323"
       y1="45"
       x2="430.81497"
       y2="342.23325"
       gradientTransform="matrix(1.1111111,0,0,1.1111111,-32.489825,-64.027774)" />
    <linearGradient
       inkscape:collect="always"
       xlink:href="#linearGradient5021"
       id="linearGradient7325"
       gradientUnits="userSpaceOnUse"
       x1="104.54032"
       y1="84.666662"
       x2="234.12635"
       y2="84.666662"
       gradientTransform="matrix(1.1111111,0,0,1.1111111,-18.814814,-15.948089)" />
    <linearGradient
       inkscape:collect="always"
       xlink:href="#linearGradient8125"
       id="linearGradient8127"
       x1="92.140305"
       y1="47.879939"
       x2="250.8903"
       y2="47.879939"
       gradientUnits="userSpaceOnUse" />
  </defs>
  <rect
     style="opacity:1;fill:#21222d;fill-opacity:1;stroke-width:1.05833;stroke-linecap:round;stroke-linejoin:round;stroke-dashoffset:25.9;paint-order:stroke fill markers"
     id="rect756"
     width="338.66666"
     height="169.33333"
     x="0"
     y="0"
     inkscape:label="Background"
     sodipodi:insensitive="true" />
  <g
     inkscape:label="Layer 1"
     inkscape:groupmode="layer"
     id="layer1"
     style="fill:url(#linearGradient5023);fill-opacity:1">
    <g
       id="g635"
       transform="matrix(0.42840155,0,0,0.42840155,102.98621,15.058854)"
       style="stroke-width:0.617606;fill:url(#linearGradient5759);fill-opacity:1">
      <path
         d="m 23.2774,61.2092 c -5.381,0 -7.0739,-1.8743 -7.0739,-8.6459 0,-4.7159 -1.9952,-13.1804 -8.52495,-13.7245 6.89255,-1.7534 7.25525,-8.4041 7.25525,-13.1805 0,-7.1343 1.6929,-9.0086 7.0739,-9.0086 V 13.022 c -8.0412,0 -10.0969,4.0509 -10.0969,12.6363 0,5.5019 -1.8743,11.0039 -8.28311,11.1853 v 4.1113 c 6.34837,0 9.55281,6.953 9.55281,11.6084 0.2418,8.3436 2.237,12.2736 10.0969,12.2736 z"
         fill="#ffffff"
         id="path485"
         style="stroke-width:0.381437;fill:url(#linearGradient5759);fill-opacity:1.0" />
      <path
         d="M 40.3462,60 V 36.6622 l 8.5855,19.6497 H 53.829 L 62.3539,36.7226 V 60 h 7.9204 V 17.6775 H 62.4749 L 51.3501,44.3407 40.2858,17.6775 H 32.4259 V 60 Z"
         fill="#ffffff"
         id="path487"
         style="stroke-width:0.381437;fill:url(#linearGradient5759);fill-opacity:1.0" />
      <path
         d="M 105.742,60 V 52.4424 H 84.9431 V 42.285 H 105.077 V 34.7274 H 84.9431 V 25.2351 H 105.742 V 17.6775 H 77.0227 V 60 Z"
         fill="#ffffff"
         id="path489"
         style="stroke-width:0.381437;fill:url(#linearGradient5759);fill-opacity:1.0" />
      <path
         d="M 129.645,60 V 25.2351 h 12.515 v -7.5576 h -32.89 v 7.5576 h 12.394 V 60 Z"
         fill="#ffffff"
         id="path491"
         style="stroke-width:0.381437;fill:url(#linearGradient5759);fill-opacity:1.0" />
      <path
         d="M 176.723,60 161.064,17.6775 h -7.8 L 137.605,60 h 8.102 l 3.083,-8.4645 h 16.808 L 168.621,60 Z m -19.529,-31.8023 5.804,16.143 H 151.39 Z"
         fill="#ffffff"
         id="path493"
         style="stroke-width:0.381437;fill:url(#linearGradient5759);fill-opacity:1.0" />
      <path
         d="M 187.738,60 V 42.285 h 20.134 v -7.5576 h -20.134 v -9.4923 h 20.799 V 17.6775 H 179.818 V 60 Z"
         fill="#ffffff"
         id="path495"
         style="stroke-width:0.381437;fill:url(#linearGradient5759);fill-opacity:1.0" />
      <path
         d="m 245.273,60 -15.66,-42.3225 h -7.799 L 206.155,60 h 8.101 l 3.084,-8.4645 h 16.808 L 237.171,60 Z m -19.529,-31.8023 5.804,16.143 H 219.94 Z"
         fill="#ffffff"
         id="path497"
         style="stroke-width:0.381437;fill:url(#linearGradient5759);fill-opacity:1.0" />
      <path
         d="m 270.012,37.8109 c 8.163,-1.3301 9.674,-5.6833 9.674,-9.19 0,-10.9434 -12.697,-10.9434 -17.473,-10.9434 H 248.367 V 60 h 14.572 c 4.534,0 16.989,0 16.989,-12.0921 0,-3.6881 -1.572,-8.4041 -9.916,-10.097 z m -8.706,-12.5758 c 4.716,0 10.339,0.1814 10.339,4.6555 0,4.4741 -4.897,4.5345 -10.339,4.5345 h -5.018 v -9.19 z m -5.018,27.2073 V 41.3781 h 4.474 c 5.623,0 11.246,0.6651 11.246,5.9252 0,3.9299 -3.265,5.1391 -11.246,5.1391 z"
         fill="#ffffff"
         id="path499"
         style="stroke-width:0.381437;fill:url(#linearGradient5759);fill-opacity:1.0" />
      <path
         d="m 286.466,64.8369 c 7.86,0 9.855,-3.93 10.097,-12.2736 0,-4.6554 3.204,-11.6084 9.552,-11.6084 v -4.1113 c -6.408,-0.1814 -8.283,-5.6834 -8.283,-11.1853 0,-8.5854 -2.055,-12.6363 -10.097,-12.6363 v 3.6277 c 5.381,0 7.074,1.8743 7.074,9.0086 0,4.7764 0.363,11.4271 7.256,13.1805 -6.53,0.5441 -8.525,9.0086 -8.525,13.7245 0,6.7716 -1.693,8.6459 -7.074,8.6459 z"
         fill="#ffffff"
         id="path501"
         style="stroke-width:0.381437;fill:url(#linearGradient5759);fill-opacity:1.0" />
    </g>
    <g
       id="g7313"
       transform="matrix(0.9,0,0,0.9,16.933332,14.353282)"
       style="fill:url(#linearGradient7325);stroke-width:1.11111">
      <g
         fill="#ffffff"
         id="g3248"
         transform="matrix(0.16933334,0,0,0.16933334,119.81883,45.954458)"
         style="fill:url(#linearGradient6495);fill-opacity:1;stroke-width:1.85186">
        <path
           d="m 277.70703,48 c -15.3582,3.414273 -30.54923,8.168519 -44.79297,15.337891 0.32574,12.577315 1.13684,24.628128 2.78516,36.869139 -5.53161,3.54397 -11.34506,6.58567 -16.51172,10.73438 -5.2496,4.03861 -10.60984,7.90171 -15.36328,12.625 -9.49632,-6.28112 -19.54795,-12.18417 -29.90234,-17.39453 -11.16124,12.01176 -21.59598,24.97672 -30.1211,39.48437 6.69984,10.51682 13.88585,21.08679 20.54102,29.33008 v 71.65429 9.10157 8.2832 c 0.16287,10e-4 0.32498,0.006 0.48632,0.0215 l 54.58594,5.26367 c 2.85931,0.27598 5.10172,2.57801 5.30078,5.44336 l 1.68164,24.0957 47.61719,3.39844 3.2793,-22.24024 c 0.42528,-2.88343 2.89784,-5.02148 5.81445,-5.02148 h 57.58985 c 2.9151,0 5.38918,2.13805 5.81445,5.02148 l 3.2793,22.24024 47.61914,-3.39844 1.67968,-24.0957 c 0.20058,-2.86535 2.44151,-5.16588 5.30078,-5.44336 l 54.56446,-5.26367 c 0.16136,-0.015 0.32346,-0.02 0.48633,-0.0215 v -7.10547 l 0.0215,-0.006 v -81.92773 c 7.68652,-9.6765 14.96451,-20.34983 20.54102,-29.33008 -8.52212,-14.50765 -18.96377,-27.47261 -30.125,-39.48437 -10.3514,5.21036 -20.40602,11.11341 -29.90235,17.39453 -4.75192,-4.72329 -10.10223,-8.58639 -15.35937,-12.625 -5.16514,-4.14871 -10.98678,-7.19041 -16.50781,-10.73438 1.64378,-12.241011 2.45594,-24.291824 2.7832,-36.869139 C 376.64734,56.168519 361.45754,51.414273 346.0918,48 c -6.13484,10.310684 -11.74472,21.477157 -16.63086,32.392578 -5.79402,-0.968181 -11.61662,-1.327114 -17.44532,-1.396484 v -0.0098 c -0.0407,0 -0.0786,0.0098 -0.11328,0.0098 -0.0362,0 -0.0732,-0.0098 -0.10937,-0.0098 v 0.0098 c -5.83925,0.06937 -11.65565,0.428303 -17.45117,1.396484 C 289.45866,69.477157 283.85091,58.310684 277.70703,48 Z m -43.18359,130.25195 c 18.16925,0 32.89453,14.7157 32.89453,32.87891 0,18.17527 -14.72528,32.89844 -32.89453,32.89844 -18.16019,0 -32.89258,-14.72317 -32.89258,-32.89844 0,-18.16321 14.73239,-32.87891 32.89258,-32.87891 z m 154.76172,0 c 18.15867,0 32.88867,14.7157 32.88867,32.87891 0,18.17527 -14.73,32.89844 -32.88867,32.89844 -18.17227,0 -32.89844,-14.72317 -32.89844,-32.89844 0,-18.16321 14.72617,-32.87891 32.89844,-32.87891 z m -77.38477,19.24024 c 5.8483,0 10.59766,4.31463 10.59766,9.62304 v 30.28321 c 0,5.31294 -4.74936,9.62304 -10.59766,9.62304 -5.8483,0 -10.58789,-4.3101 -10.58789,-9.62304 v -30.28321 c 0,-5.30841 4.73959,-9.62304 10.58789,-9.62304 z"
           stroke-width="2.79272"
           transform="scale(0.93749999)"
           id="path3238"
           style="fill:url(#linearGradient7315);fill-opacity:1" />
        <g
           stroke-width="2.61819"
           id="g3246"
           style="fill:url(#linearGradient7323);fill-opacity:1">
          <path
             d="m 384.81647,263.00158 -1.58489,22.71014 c -0.19086,2.73715 -2.36814,4.91584 -5.10529,5.11236 l -54.50971,3.88941 c -0.1329,0.01 -0.2658,0.0141 -0.39728,0.0141 -2.70888,0 -5.04592,-1.98783 -5.44603,-4.70801 l -3.12595,-21.19877 h -44.47726 l -3.12595,21.19877 c -0.41991,2.85308 -2.97043,4.90453 -5.84331,4.69387 l -54.50971,-3.88941 c -2.73715,-0.19652 -4.91442,-2.37521 -5.10529,-5.11236 l -1.58489,-22.71014 -46.01549,-4.43656 c 0.0212,4.94553 0.0848,10.36328 0.0848,11.44202 0,48.59854 61.64948,71.95763 138.24442,72.22625 h 0.0933 0.0947 c 76.59494,-0.26862 138.22322,-23.62771 138.22322,-72.22625 0,-1.09853 0.0664,-6.49366 0.0891,-11.44202 z"
             id="path3240"
             style="fill:url(#linearGradient7317);fill-opacity:1;stroke-width:2.61819" />
          <path
             d="m 243.2842,199.7641 c 0,11.30205 -9.16012,20.46217 -20.47065,20.46217 -11.30488,0 -20.47066,-9.16012 -20.47066,-20.46217 0,-11.30205 9.16578,-20.47065 20.47066,-20.47065 11.31053,0 20.47065,9.1686 20.47065,20.47065"
             id="path3242"
             style="fill:url(#linearGradient7319);fill-opacity:1;stroke-width:2.61819" />
          <path
             d="m 341.53502,199.7641 c 0,11.30205 9.15729,20.46217 20.45934,20.46217 11.31337,0 20.47066,-9.16012 20.47066,-20.46217 0,-11.30205 -9.15729,-20.47065 -20.47066,-20.47065 -11.30205,0 -20.45934,9.1686 -20.45934,20.47065"
             id="path3244"
             style="fill:url(#linearGradient7321);fill-opacity:1;stroke-width:2.61819" />
        </g>
      </g>
      <g
         fill="#ffffff"
         id="g3910"
         transform="matrix(0.16933334,0,0,0.16933334,119.81884,43.06821)"
         style="fill:#ffffff;fill-opacity:1;stroke-width:1.85186">
        <path
           id="path3868"
           style="fill:url(#linearGradient7263);fill-opacity:1;stroke:none;stroke-width:1.85186"
           d="m -68.980974,21.67857 c -11.593988,0 -20.659042,-3.650199 -27.206036,-10.950192 -6.55199,-7.3029927 -9.82344,-16.7846743 -9.82344,-28.453663 0,-13.700986 3.34746,-24.085458 10.041451,-31.160451 6.705993,-7.073993 15.509661,-10.606987 26.42465,-10.606987 5.869994,0 11.080035,0.50476 15.632031,1.521759 4.556995,1.012999 7.586863,2.051959 9.093861,3.103958 l 0.451132,35.33072 c 0,2.052998 -5.418305,2.984848 -11.496299,3.088848 -6.077994,0.094 -13.033168,-1.172079 -13.033168,-1.172079 v -11.863248 h 6.995777 l -0.07987,-5.288383 c 0,-1.958998 -1.942067,-2.944227 -5.815063,-2.944227 -3.877996,0 -7.301419,1.642121 -10.272416,4.917118 -2.977997,3.278996 -4.45951,8.072727 -4.45951,14.38872 0,6.328994 1.447111,10.9956652 4.345108,14.0066621 2.891998,3.007997 6.682207,4.51563213 11.345202,4.51563213 1.958998,0 3.986674,-0.3155438 6.095672,-0.96054315 2.109998,-0.63899938 3.520342,-1.23705098 4.239341,-1.79805048 0.712999,-0.5769994 1.390172,-0.8504584 2.031171,-0.8504584 0.637999,0 1.670642,0.746659 3.09964,2.2556575 1.430999,1.50499851 2.713333,3.7842558 3.844331,6.8252527 1.125999,3.056997 1.690125,5.4006916 1.690125,7.0626906 0,1.648998 -0.03493,2.786724 -0.107926,3.386724 -1.580999,1.729998 -4.498978,3.100623 -8.754974,4.120622 -4.247995,1.016999 -9.011799,1.523918 -14.280794,1.523918 z m 69.26703339,0 C -10.36493,21.67857 -19.061551,18.252306 -25.797544,11.408313 -32.531537,4.5553199 -35.897278,-5.5082429 -35.897278,-18.80023 c 0,-13.283986 3.32818,-23.389317 9.983174,-30.31431 6.663993,-6.918993 15.286127,-10.378183 25.8591166,-10.378183 10.5779894,0 19.2089284,3.327021 25.9109214,9.981015 6.701993,6.667993 10.050088,16.828164 10.050088,30.48915 0,13.6509868 -3.272767,23.8576085 -9.82776,30.590602 C 19.535269,18.314037 10.935049,21.67857 0.28605939,21.67857 Z m 149.73465061,0 c -10.65499,0 -19.34477,-3.426264 -26.08576,-10.270257 -6.733,-6.8529931 -10.09974,-16.9165559 -10.09974,-30.208543 0,-13.283986 3.33097,-23.389317 9.99397,-30.31431 6.65799,-6.918993 15.27349,-10.378183 25.85048,-10.378183 10.57299,0 19.21193,3.327021 25.91092,9.981015 6.70099,6.667993 10.05009,16.828164 10.05009,30.48915 0,13.6509868 -3.27129,23.8576085 -9.82128,30.590602 -6.551,6.745993 -15.14769,10.110526 -25.79868,10.110526 z M 50.957409,20.668381 c -1.509998,0 -2.730492,-0.551162 -3.669491,-1.636161 -0.944999,-1.101999 -1.413833,-2.589464 -1.413833,-4.472462 v -67.734481 c 0,-3.464997 1.922946,-5.19125 5.758942,-5.19125 h 19.301521 c 23.634976,0 35.455912,13.847296 35.455912,41.547268 0,12.9479875 -3.10551,22.4271935 -9.320504,28.447187 -6.203994,6.021994 -15.292852,9.039899 -27.25784,9.039899 z m 140.860951,0 c -1.28099,0 -2.1861,-1.740046 -2.7111,-5.202043 -0.226,-1.654998 -0.33457,-3.35285 -0.33457,-5.076848 0,-1.7339985 0.10857,-3.4248502 0.33457,-5.0768486 0.525,-3.4709965 1.43011,-5.19988417 2.7111,-5.19988417 H 205.3631 V -56.567923 c 0,-1.495999 3.73101,-2.253499 11.179,-2.253499 7.45499,0 11.17683,0.7575 11.17683,2.253499 V 0.11275723 h 13.21017 c 1.279,0 2.18027,1.72888767 2.71327,5.19988417 0.221,1.6519984 0.33457,3.3428501 0.33457,5.0768486 0,1.723998 -0.11357,3.42185 -0.33457,5.076848 -0.533,3.461997 -1.43427,5.202043 -2.71327,5.202043 z M -0.0010243,5.1398745e-4 c 3.6159964,0 6.6465468,-1.61820648745 9.0895443,-4.85020328745 2.445998,-3.2359968 3.673808,-7.8701077 3.673808,-13.8901017 0,-6.024994 -1.188409,-10.652788 -3.5594062,-13.885784 -2.3709976,-3.244997 -5.457913,-4.860996 -9.2579092,-4.860996 -3.8019962,0 -6.8666314,1.595719 -9.199629,4.802715 -2.3369976,3.196997 -3.5032846,7.784865 -3.5032846,13.777859 0,5.979994 1.226335,10.6287507 3.6673324,13.9397474 2.4539975,3.3079967 5.4785479,4.96676358745 9.0895443,4.96676358745 z m 149.7389643,0 c 3.616,0 6.64255,-1.61820648745 9.08954,-4.85020328745 2.446,-3.2359968 3.6695,-7.8701077 3.6695,-13.8901017 0,-6.024994 -1.18741,-10.652788 -3.55941,-13.885784 -2.368,-3.244997 -5.45691,-4.860996 -9.25791,-4.860996 -3.802,0 -6.86963,1.595719 -9.19963,4.802715 -2.33,3.196997 -3.49897,7.784865 -3.49897,13.777859 0,5.979994 1.22086,10.6287507 3.66086,13.9397474 2.45,3.3079967 5.48402,4.96676358745 9.09602,4.96676358745 z M 67.549983,-0.7830302 h 1.128908 c 4.816995,0 8.336501,-1.1001171 10.559499,-3.2831149 2.211998,-2.1769978 3.326285,-6.8643149 3.326285,-14.0563079 0,-7.188993 -1.065203,-12.322389 -3.216201,-15.405385 -2.145997,-3.085997 -5.284436,-4.634351 -9.428432,-4.634351 -1.125999,0 -1.805013,0.208813 -2.029013,0.623813 -0.225999,0.417 -0.341046,1.410399 -0.341046,2.987397 z"
           transform="matrix(1.4138169,0,0,-1.4138169,194.87872,453.34825)" />
        <path
           id="path4248"
           style="fill:url(#linearGradient7265);fill-opacity:1;stroke:none;stroke-width:1.85186"
           d="m 162.03987,31.824942 v -3.980318 h 2.82982 v 3.980318 z M -10.378712,29.886588 c -3.281997,0 -5.910139,-1.06935 -7.872137,-3.177348 -1.965998,-2.124997 -2.944227,-5.168036 -2.944227,-9.137032 V 7.4552065 c 0,-4.0569959 1.038752,-7.16566724 3.11475,-9.3226651 2.083998,-2.1739978 4.829248,-3.2485786 8.241245,-3.2485786 2.5859974,0 4.7132326,0.5304674 6.3892309,1.5994663 1.6779984,1.0619989 2.825322,2.2362368 3.44932137437,3.51623556729 V 12.137045 H -9.8887271 V 9.6720106 h 7.060532 V 0.81126968 c -0.4529996,-0.990999 -1.253914,-1.82420558 -2.4089128,-2.50820488 -1.1509989,-0.6939993 -2.6889751,-1.033933 -4.6019731,-1.033933 -2.619997,0 -4.695977,0.864072 -6.235976,2.58807028 -1.539998,1.73699822 -2.311779,4.25978842 -2.311779,7.56778512 V 17.598111 c 0,3.189997 0.713416,5.618654 2.143414,7.293652 1.433999,1.678999 3.391712,2.514681 5.86471,2.514681 2.4439975,0 4.2947737,-0.624808 5.5387725,-1.862807 1.2509988,-1.247998 1.9177445,-3.015654 2.0117444,-5.305651 h 2.61828955 l 0.0431705,0.133828 c -0.0799999,2.987997 -1.00143695,5.327253 -2.75643515,7.002252 -1.7599982,1.668998 -4.247545,2.512522 -7.4555418,2.512522 z m 25.049671,-8.767925 c -2.365998,0 -4.308699,-0.740756 -5.8236979,-2.229755 C 7.3262626,17.39591 6.6039446,15.711582 6.6779445,13.805584 l 0.047487,-0.138145 2.6226066,-0.02159 c 0,1.404999 0.4818462,2.583615 1.4548459,3.548614 0.975999,0.970999 2.219771,1.448369 3.727771,1.448369 1.620997,0 2.878527,-0.506967 3.792525,-1.510966 0.894999,-1.016999 1.351236,-2.423124 1.351236,-4.209122 V 9.8166317 h -4.418497 c -2.818997,0 -5.059694,-0.6987696 -6.7086933,-2.0937682 C 6.8972279,6.3278649 6.0735578,4.4493817 6.0735578,2.1063841 c 0,-2.21699781 0.573235,-3.9745925 1.7052339,-5.2775912 1.1389989,-1.2979987 2.7474133,-1.9448301 4.8394103,-1.9448301 1.495999,0 2.854295,0.407201 4.075294,1.2282002 1.222999,0.8149992 2.213922,1.8542758 2.980921,3.10827451 0,-0.57299941 0.03229,-1.13607601 0.09929,-1.70307541 0.069,-0.5569995 0.179462,-1.2695737 0.319462,-2.1455729 h 2.918324 c -0.204999,0.8149992 -0.335595,1.632145 -0.416595,2.4801441 -0.079,0.8369992 -0.120877,1.7152905 -0.120877,2.6182896 V 12.866626 c 0,2.652997 -0.716574,4.692734 -2.145573,6.123733 -1.436998,1.416998 -3.319494,2.128304 -5.657491,2.128304 z m 23.415668,0 c -1.495999,0 -2.79993,-0.380701 -3.906928,-1.1397 -1.102999,-0.769 -1.993144,-1.848897 -2.657143,-3.252896 l -0.239597,3.922038 H 28.807132 V -4.6260522 h 2.806082 V 13.570305 c 0.387999,1.557998 1.027562,2.785443 1.927561,3.682442 0.894,0.891999 2.086566,1.342602 3.561565,1.342602 1.542998,0 2.745053,-0.642198 3.609052,-1.936196 0.867999,-1.293999 1.292956,-3.461526 1.292956,-6.488523 V -4.6260522 h 2.80824 v 15.2089602 0.654033 c 0.204999,2.120997 0.769649,3.876909 1.683648,5.281908 0.918999,1.404998 2.196541,2.095926 3.833539,2.095926 1.555998,0 2.75926,-0.631709 3.598259,-1.888708 0.834,-1.254999 1.262737,-3.438172 1.262737,-6.538169 V -4.6260522 H 58.01412 V 10.138252 c 0,3.728996 -0.610746,6.489734 -1.834745,8.288732 -1.218999,1.794998 -2.939716,2.691679 -5.156714,2.691679 -1.608998,0 -2.997208,-0.480053 -4.142207,-1.444052 -1.144999,-0.961999 -2.027668,-2.291845 -2.650668,-3.973843 -0.486999,1.821998 -1.253353,3.179294 -2.292352,4.075293 -1.037999,0.899 -2.323809,1.342602 -3.850807,1.342602 z m 33.949265,0 c -2.448997,0 -4.537989,-1.052922 -6.276988,-3.15792 -1.734998,-2.114998 -2.60318,-4.774957 -2.60318,-7.9649538 V 5.7974601 c 0,-3.1839968 0.86639,-5.79676116364 2.592388,-7.8397591 1.730998,-2.046998 3.959951,-3.0737382 6.684949,-3.0737382 1.696998,0 3.151902,0.2972028 4.355901,0.8742022 1.206999,0.5799995 2.194179,1.3610484 2.957178,2.3290474 l -1.148335,1.98800061 c -0.714999,-0.9029991 -1.574279,-1.59197611 -2.577278,-2.08297561 -1.002999,-0.4799996 -2.205468,-0.7231056 -3.587466,-0.7231056 -1.988998,0 -3.576437,0.8069752 -4.744436,2.43697361 C 66.522626,1.3321038 65.935903,3.3698892 65.935903,5.8168868 v 2.1024024 h 14.46427 v 2.7737028 c 0,3.180997 -0.733696,5.715324 -2.201695,7.602322 -1.464998,1.883998 -3.514588,2.823349 -6.162586,2.823349 z m 31.171248,0 c -2.449,0 -4.539468,-1.052922 -6.283466,-3.15792 -1.730999,-2.114998 -2.601022,-4.774957 -2.601022,-7.9649538 V 5.7974601 c 0,-3.1839968 0.865865,-5.79676116364 2.598863,-7.8397591 1.727998,-2.046998 3.954635,-3.0737382 6.680635,-3.0737382 1.698,0 3.1519,0.2972028 4.3559,0.8742022 1.209,0.5799995 2.19534,1.3610484 2.95933,2.3290474 l -1.14185,1.98800061 c -0.723,-0.9029991 -1.58108,-1.59197611 -2.58807,-2.08297561 -1,-0.4799996 -2.19831,-0.7231056 -3.58531,-0.7231056 -1.996,0 -3.57596,0.8069752 -4.737963,2.43697361 C 97.691188,1.3321038 97.102831,3.3698892 97.102831,5.8168868 v 2.1024024 h 14.466429 v 2.7737028 c 0,3.180997 -0.73438,5.715324 -2.19738,7.602322 -1.461,1.883998 -3.52175,2.823349 -6.16474,2.823349 z m 22.59543,0 c -1.501,0 -2.80541,-0.408091 -3.91341,-1.21309 -1.118,-0.800999 -2.00689,-1.953372 -2.68088,-3.43637 l -0.23097,4.178902 h -2.50388 V -4.6260522 h 2.80392 V 13.414891 c 0.481,1.576999 1.20463,2.827626 2.17363,3.766625 0.965,0.947999 2.16758,1.413833 3.60258,1.413833 1.6,0 2.82917,-0.582723 3.66517,-1.752722 0.841,-1.169999 1.26274,-3.188248 1.26274,-6.076245 V -4.6260522 h 2.82551 V 10.792285 c 0,3.532996 -0.60132,6.1367 -1.81532,7.811698 -1.201,1.677998 -2.9311,2.51468 -5.18909,2.51468 z m 20.58368,0 c -2.556,0 -4.56301,-1.082946 -6.00501,-3.239944 -1.454,-2.167998 -2.1758,-5.045624 -2.1758,-8.6276205 V 5.7974601 c 0,-3.3009967 0.72185,-5.94857764 2.16285,-7.9325757 1.43799,-1.987998 3.42932,-2.9809216 5.96831,-2.9809216 1.369,0 2.58301,0.3027392 3.62201,0.9087386 1.043,0.6029994 1.92287,1.4759737 2.63987,2.6139726 v -3.05647 c 0,-2.4969975 -0.48453,-4.383712 -1.45053,-5.687711 -0.96199,-1.286998 -2.45051,-1.931879 -4.45951,-1.931879 -0.99899,0 -1.96258,0.13312 -2.89458,0.41012 -0.94,0.268 -1.78806,0.64986 -2.54705,1.141859 l -0.77707,-2.462876 c 0.89,-0.498999 1.90515,-0.897139 3.05215,-1.200139 1.145,-0.303 2.21588,-0.459766 3.21188,-0.459766 2.771,0 4.91709,0.896779 6.42809,2.665777 1.509,1.775999 2.25997,4.2856182 2.25997,7.524615 v 25.297901 h -2.38085 l -0.27413,-3.516235 c -0.707,1.267998 -1.58683,2.265385 -2.65283,2.946385 -1.064,0.693999 -2.30877,1.040408 -3.72777,1.040408 z m 34.44141,0 c -1.494,0 -2.80272,-0.408091 -3.91772,-1.21309 -1.116,-0.800999 -2.00057,-1.953372 -2.67657,-3.43637 l -0.23096,4.178902 h -2.50173 V -4.6260522 h 2.80824 V 13.414891 c 0.479,1.576999 1.20447,2.827626 2.17147,3.766625 0.964,0.947999 2.16426,1.413833 3.59826,1.413833 1.605,0 2.82433,-0.582723 3.66733,-1.752722 0.839,-1.169999 1.26274,-3.188248 1.26274,-6.076245 V -4.6260522 h 2.82335 V 10.792285 c 0,3.532996 -0.59569,6.1367 -1.80668,7.811698 -1.204,1.677998 -2.93973,2.51468 -5.19773,2.51468 z m 21.07367,0 c -2.444,0 -4.53583,-1.052922 -6.27483,-3.15792 -1.735,-2.114998 -2.59886,-4.774957 -2.59886,-7.9649538 V 5.7974601 c 0,-3.1839968 0.86454,-5.79676116364 2.59454,-7.8397591 1.723,-2.046998 3.94764,-3.0737382 6.68063,-3.0737382 1.696,0 3.15075,0.2972028 4.35375,0.8742022 1.207,0.5799995 2.19249,1.3610484 2.96149,2.3290474 l -1.14617,1.98800061 c -0.722,-0.9029991 -1.57823,-1.59197611 -2.59023,-2.08297561 -0.999,-0.4799996 -2.19684,-0.7231056 -3.57884,-0.7231056 -1.99799,0 -3.58059,0.8069752 -4.74659,2.43697361 -1.167,1.62599839 -1.75704,3.66378379 -1.75704,6.11078139 v 2.1024024 h 14.46859 v 2.7737028 c 0,3.180997 -0.73106,5.715324 -2.19306,7.602322 -1.466,1.883998 -3.52738,2.823349 -6.17338,2.823349 z M 162.03987,20.648105 V -4.6282108 h 2.82982 V 20.648105 Z m -90.003978,-2.00311 c 1.744998,0 3.104404,-0.68455 4.090403,-2.063549 0.979999,-1.377999 1.469955,-3.116045 1.469955,-5.202043 v -1.08142 H 65.935903 c 0.047,2.358997 0.632674,4.338576 1.765673,5.944575 1.131999,1.599998 2.576318,2.402437 4.334316,2.402437 z m 31.171248,0 c 1.744,0 3.10508,-0.68455 4.08608,-2.063549 0.986,-1.377999 1.47427,-3.116045 1.47427,-5.202043 v -1.08142 H 97.102831 c 0.051,2.358997 0.637515,4.338576 1.763514,5.944575 1.130999,1.599998 2.577795,2.402437 4.340795,2.402437 z m 98.69419,0 c 1.747,0 3.1094,-0.68455 4.0904,-2.063549 0.984,-1.377999 1.46996,-3.116045 1.46996,-5.202043 v -1.08142 h -11.66251 c 0.05,2.358997 0.63883,4.338576 1.76783,5.944575 1.126,1.599998 2.57132,2.402437 4.33432,2.402437 z m -54.90853,-0.04965 c 1.38599,0 2.53932,-0.414994 3.44932,-1.238993 0.911,-0.837999 1.63136,-1.926324 2.15636,-3.272322 V 1.5645946 c -0.546,-1.30699874 -1.2828,-2.33589746 -2.2168,-3.0758967 -0.937,-0.7399993 -2.08037,-1.1008473 -3.43637,-1.1008473 -1.979,0 -3.46177,0.756037 -4.43577,2.28803547 -0.986,1.51799853 -1.47211,3.55657663 -1.47211,6.12157403 v 3.4536384 c 0,2.7699975 0.49686,5.0261815 1.49586,6.7561805 0.99199,1.726998 2.48451,2.58807 4.45951,2.58807 z M 15.182529,7.638681 h 4.491888 V 2.1711398 c -0.502999,-1.38499862 -1.352169,-2.52126142 -2.562168,-3.4212605 -1.207998,-0.8959991 -2.591367,-1.3361264 -4.144366,-1.3361264 -1.291998,0 -2.2953,0.4186886 -3.0132991,1.2756877 -0.7189993,0.85399916 -1.074945,1.96217715 -1.074945,3.3111758 0,1.5969984 0.5680278,2.9398557 1.7160271,4.0148546 1.144998,1.0819989 2.676865,1.62321 4.586863,1.62321 z"
           transform="matrix(1.4138169,0,0,-1.4138169,158.75131,602.80379)" />
      </g>
    </g>
    <rect
       style="opacity:1;fill:url(#linearGradient8127);fill-opacity:1;stroke:none;stroke-width:1.05833;stroke-linecap:round;stroke-linejoin:round;stroke-dashoffset:25.9;paint-order:stroke fill markers"
       id="rect7379"
       width="158.75"
       height="1.0583333"
       x="92.140305"
       y="52.173523" />
  </g>
  <g
     id="g2837"
     inkscape:label="Edges"
     sodipodi:insensitive="true">
    <rect
       style="opacity:1;fill:#21222d;fill-opacity:1;stroke-width:1.05833;stroke-linecap:round;stroke-linejoin:round;stroke-dashoffset:25.9;paint-order:stroke fill markers"
       id="rect2831"
       width="338.66666"
       height="20.637499"
       x="0"
       y="148.69583" />
    <rect
       style="opacity:1;fill:#21222d;fill-opacity:1;stroke-width:1.05833;stroke-linecap:round;stroke-linejoin:round;stroke-dashoffset:25.9;paint-order:stroke fill markers"
       id="rect2833"
       width="338.66666"
       height="20.637499"
       x="0"
       y="0" />
    <rect
       style="opacity:1;fill:#21222d;fill-opacity:1;stroke-width:1.05833;stroke-linecap:round;stroke-linejoin:round;stroke-dashoffset:25.9;paint-order:stroke fill markers"
       id="rect2839"
       width="20.637499"
       height="169.33333"
       x="0"
       y="0" />
    <rect
       style="opacity:1;fill:#21222d;fill-opacity:1;stroke-width:1.05833;stroke-linecap:round;stroke-linejoin:round;stroke-dashoffset:25.9;paint-order:stroke fill markers"
       id="rect2841"
       width="20.637499"
       height="169.33333"
       x="318.02914"
       y="0" />
  </g>
</svg>
